# xmcd
#
# Track frame offsets:
#	150
#	15504
#	28019
#	38527
#	52346
#	65257
#	83004
#	96955
#	111712
#	120830
#	134141
#	148393
#	157504
#	177110
#
# Disc length: 2555 seconds
#
# Revision: 0
# Processed by: cddbd v1.5.1PL0 Copyright (c) Steve Scherf et al.
# Submitted via: EasyCDDAExtractor 8.2.1.1
#
DISCID=ba09f90e
DTITLE=Bluegrass Brothers - The Old Crooked Trail
DYEAR=2004
DGENRE=Bluegrass
TTITLE0=The Old Crooked Trail
TTITLE1=You Should Be Ashamed
TTITLE2=Nobody's Love (Is Like Mine)
TTITLE3=Lonsome Ole Prisoner
TTITLE4=Five Mile Mountain Road
TTITLE5=Forever Now She's Gone
TTITLE6=Lovin' You Has Not Been Easy
TTITLE7=A Stranger In My Own Home Town
TTITLE8=Home Is Where The Heart Is
TTITLE9=Save My Love For You
TTITLE10=I Called Her Sunshine
TTITLE11=Legend Of The Highway
TTITLE12=Wait A Minute
TTITLE13=Wild Bill Jones
EXTD=
EXTT0=
EXTT1=
EXTT2=
EXTT3=
EXTT4=
EXTT5=
EXTT6=
EXTT7=
EXTT8=
EXTT9=
EXTT10=
EXTT11=
EXTT12=
EXTT13=
PLAYORDER=
